name C:\Users\antoi\Documents\MyRepositories\upper-imu-dc\Results\main_tracking\Case_88\kinematics.mot
datacolumns 10
datarows 42
range 2.07000000 2.48000000
endheader 
time	clav_prot	clav_elev	scapula_abduction	scapula_elevation	scapula_upward_rot	scapula_winging	plane_elv	shoulder_elv	axial_rot	
          2.07000000	        -27.60164127	          5.56790470	         -3.71316093	         -2.83521266	         41.93311490	         -4.29771916	         71.04537317	         87.18906855	        -21.20003085	
          2.08000000	        -27.79740900	          5.52524403	         -3.72039815	         -2.92707917	         42.32811943	         -4.38635051	         70.84508436	         87.42497465	        -21.08207572	
          2.09000000	        -27.99233226	          5.47879095	         -3.72608944	         -3.02036142	         42.72096763	         -4.47316349	         70.64365630	         87.65675078	        -20.96367919	
          2.10000000	        -28.18625472	          5.42875446	         -3.72998875	         -3.11492403	         43.11177190	         -4.55815615	         70.44114133	         87.88464038	        -20.84549349	
          2.11000000	        -28.37907791	          5.37540274	         -3.73193060	         -3.21059877	         43.50069171	         -4.64135719	         70.23757489	         88.10886721	        -20.72800468	
          2.12000000	        -28.57076689	          5.31906020	         -3.73183537	         -3.30718695	         43.88793652	         -4.72282889	         70.03297686	         88.32962411	        -20.61150789	
          2.13000000	        -28.76135064	          5.26010157	         -3.72970832	         -3.40446290	         44.27376370	         -4.80266762	         69.82734914	         88.54706585	        -20.49609651	
          2.14000000	        -28.95091689	          5.19894850	         -3.72563763	         -3.50217440	         44.65846730	         -4.88100231	         69.62067351	         88.76131182	        -20.38167448	
          2.15000000	        -29.13960240	          5.13606269	         -3.71978421	         -3.60004519	         45.04236569	         -4.95799104	         69.41290483	         88.97244923	        -20.26798269	
          2.16000000	        -29.32757897	          5.07193295	         -3.71236312	         -3.69778154	         45.42578874	         -5.03381469	         69.20396030	         89.18053667	        -20.15463784	
          2.17000000	        -29.51504010	          5.00706218	         -3.70362786	         -3.79507888	         45.80906305	         -5.10866995	         68.99371333	         89.38561008	        -20.04118195	
          2.18000000	        -29.70219051	          4.94195306	         -3.69385706	         -3.89163002	         46.19250035	         -5.18276248	         68.78199258	         89.58768643	        -19.92712446	
          2.19000000	        -29.88923496	          4.87709263	         -3.68334035	         -3.98713411	         46.57638550	         -5.25629903	         68.56858379	         89.78676846	        -19.81198102	
          2.20000000	        -30.07636775	          4.81293789	         -3.67236678	         -4.08130510	         46.96096335	         -5.32947939	         68.35323752	         89.98285092	        -19.69531047	
          2.21000000	        -30.26376462	          4.74990489	         -3.66121574	         -4.17387830	         47.34642958	         -5.40248984	         68.13568213	         90.17592380	        -19.57674312	
          2.22000000	        -30.45157673	          4.68836168	         -3.65014954	         -4.26461490	         47.73292546	         -5.47549842	         67.91563943	         90.36597297	        -19.45599396	
          2.23000000	        -30.63992769	          4.62862373	         -3.63940730	         -4.35330557	         48.12053845	         -5.54865203	         67.69284060	         90.55297594	        -19.33286924	
          2.24000000	        -30.82891498	          4.57094856	         -3.62920057	         -4.43977543	         48.50930976	         -5.62207495	         67.46703993	         90.73689038	        -19.20726763	
          2.25000000	        -31.01861205	          4.51553343	         -3.61971853	         -4.52388611	         48.89923270	         -5.69586731	         67.23803018	         90.91765259	        -19.07916833	
          2.26000000	        -31.20907148	          4.46251460	         -3.61113819	         -4.60553657	         49.29024766	         -5.77010387	         67.00565577	         91.09517970	        -18.94861254	
          2.27000000	        -31.40033138	          4.41196564	         -3.60363494	         -4.68466535	         49.68224301	         -5.84483437	         66.76982035	         91.26936442	        -18.81568578	
          2.28000000	        -31.59242379	          4.36389741	         -3.59739087	         -4.76125226	         50.07506327	         -5.92008574	         66.53048941	         91.44006300	        -18.68050235	
          2.29000000	        -31.78538044	          4.31825873	         -3.59259892	         -4.83531934	         50.46851724	         -5.99586407	         66.28768812	         91.60708418	        -18.54318821	
          2.30000000	        -31.97923283	          4.27494227	         -3.58947050	         -4.90692668	         50.86237138	         -6.07215538	         66.04150313	         91.77019581	        -18.40387427	
          2.31000000	        -32.17400897	          4.23378908	         -3.58823170	         -4.97616940	         51.25634970	         -6.14892597	         65.79207803	         91.92912931	        -18.26269904	
          2.32000000	        -32.36972708	          4.19459264	         -3.58910887	         -5.04317521	         51.65014021	         -6.22612242	         65.53960391	         92.08358326	        -18.11981830	
          2.33000000	        -32.56638907	          4.15710788	         -3.59231536	         -5.10809838	         52.04340090	         -6.30367286	         65.28431294	         92.23323432	        -17.97541989	
          2.34000000	        -32.76397395	          4.12106099	         -3.59803573	         -5.17111325	         52.43576909	         -6.38148871	         65.02647125	         92.37775039	        -17.82973882	
          2.35000000	        -32.96243093	          4.08615758	         -3.60640792	         -5.23240880	         52.82687191	         -6.45946554	         64.76636986	         92.51680615	        -17.68307269	
          2.36000000	        -33.16167589	          4.05209161	         -3.61751088	         -5.29218284	         53.21633747	         -6.53748508	         64.50431693	         92.65009944	        -17.53579038	
          2.37000000	        -33.36159335	          4.01855555	         -3.63136015	         -5.35063567	         53.60380789	         -6.61541921	         64.24063167	         92.77736476	        -17.38833017	
          2.38000000	        -33.56204069	          3.98524867	         -3.64790752	         -5.40796503	         53.98895153	         -6.69313385	         63.97563703	         92.89838414	        -17.24118983	
          2.39000000	        -33.76285528	          3.95188502	         -3.66704610	         -5.46436125	         54.37147423	         -6.77049379	         63.70965371	         93.01299484	        -17.09490883	
          2.40000000	        -33.96386472	          3.91820194	         -3.68862094	         -5.52000210	         54.75113039	         -6.84736862	         63.44299674	         93.12109303	        -16.95004323	
          2.41000000	        -34.16489632	          3.88396651	         -3.71243902	         -5.57504890	         55.12773239	         -6.92363801	         63.17597288	         93.22263493	        -16.80713994	
          2.42000000	        -34.36578490	          3.84898123	         -3.73827964	         -5.62964268	         55.50115577	         -6.99919608	         62.90888069	         93.31763827	        -16.66671321	
          2.43000000	        -34.56637964	          3.81308825	         -3.76590310	         -5.68390126	         55.87134380	         -7.07395522	         62.64201127	         93.40618029	        -16.52922277	
          2.44000000	        -34.76654856	          3.77617012	         -3.79505433	         -5.73791852	         56.23831234	         -7.14784797	         62.37564687	         93.48839057	        -16.39505877	
          2.45000000	        -34.96617996	          3.73815214	         -3.82547357	         -5.79176186	         56.60214011	         -7.22082797	         62.11006507	         93.56445502	        -16.26453586	
          2.46000000	        -35.16518307	          3.69900153	         -3.85690269	         -5.84547191	         56.96296174	         -7.29286980	         61.84553858	         93.63461276	        -16.13789231	
          2.47000000	        -35.36348628	          3.65872220	         -3.88908298	         -5.89906552	         57.32096470	         -7.36396661	         61.58232755	         93.69914501	        -16.01529839	
          2.48000000	        -35.56103287	          3.61734930	         -3.92175580	         -5.95253834	         57.67637781	         -7.43412645	         61.32067222	         93.75836953	        -15.89686897	
